PathFileType	4	(X/Y/Z)	/Users/niels/Desktop/University/Third Semester/Perception and Action/Exam/Gymnastics Motion Tracking/Code for Gym Tracking/Analyzed Data/Webcam_Backflip/id4_3_baseline_Sports2D/id4_3_baseline_Sports2D_px_person00.trc
DataRate	CameraRate	NumFrames	NumMarkers	Units	OrigDataRate	OrigDataStartFrame	OrigNumFrames
29.8125	29.8125	10	22	m	29.8125	100	160
Frame#	Time	Hip			RHip			RKnee			RAnkle			RBigToe			RSmallToe			RHeel			LHip			LKnee			LAnkle			LBigToe			LSmallToe			LHeel			Neck			Head			Nose			RShoulder			RElbow			RWrist			LShoulder			LElbow			LWrist		
		X1	Y1	Z1	X2	Y2	Z2	X3	Y3	Z3	X4	Y4	Z4	X5	Y5	Z5	X6	Y6	Z6	X7	Y7	Z7	X8	Y8	Z8	X9	Y9	Z9	X10	Y10	Z10	X11	Y11	Z11	X12	Y12	Z12	X13	Y13	Z13	X14	Y14	Z14	X15	Y15	Z15	X16	Y16	Z16	X17	Y17	Z17	X18	Y18	Z18	X19	Y19	Z19	X20	Y20	Z20	X21	Y21	Z21	X22	Y22	Z22
100	3.354297693920335	0.9265872402864336	-0.5504331132214058	0.0	0.9241964134258733	-0.5518916073438939	0.0	0.962598697125141	-0.6593609867828475	0.0	0.9257507569700416	-0.7660616689747335	0.0	0.9651581763152409	-0.7892375425071906	0.0	0.9567987747780226	-0.7893748408832814	0.0	0.9138079171815359	-0.7815700875125515	0.0	0.9271924143812842	-0.5500315050998217	0.0	0.954611643594147	-0.6583460899528126	0.0	0.921945338236562	-0.7646413050818825	0.0	0.9620529283654266	-0.788802582488279	0.0	0.9564101482582059	-0.78208302027437	0.0	0.91271401847954	-0.7768907810688549	0.0	0.9330264122423593	-0.40675239963398435	0.0	0.9805402762244353	-0.3418889951373715	0.0	0.9729801002415255	-0.3772098484577599	0.0	0.9246948494337811	-0.41179922335440766	0.0	0.9837208920312748	-0.3759368855902146	0.0	1.0251831911285432	-0.3290972446257121	0.0	0.935591991898893	-0.4116603679184884	0.0	0.9830324420593791	-0.38132097578139423	0.0	1.0309590994632796	-0.3368367005797774	0.0
101	3.3878406708595383	0.9262224850973475	-0.5428415207364651	0.0	0.9242557042704056	-0.5440918682953894	0.0	0.9609179379028524	-0.6524994650059874	0.0	0.9254351888889318	-0.7597281705662539	0.0	0.9655690805620527	-0.7829794487051817	0.0	0.9576112108113771	-0.7833246334924409	0.0	0.9136238503574701	-0.7758412503151416	0.0	0.926618538109219	-0.542324002554714	0.0	0.9519554713602371	-0.651936851513929	0.0	0.9210167329688463	-0.7583500689918031	0.0	0.9615801535781088	-0.7825387848170897	0.0	0.9559305316534953	-0.7760832260023289	0.0	0.9121940337742996	-0.7707161077452472	0.0	0.9327935148352987	-0.39904289539838184	0.0	0.9782302908942141	-0.3334799364519682	0.0	0.972064798184652	-0.36815827421860453	0.0	0.9242608215575585	-0.4037621239583253	0.0	0.9843321418109984	-0.36502528085687047	0.0	1.0264955569161385	-0.3186056929266899	0.0	0.9368318129095581	-0.40371692287429445	0.0	0.9851280537410966	-0.3691804404556343	0.0	1.0341123073929777	-0.32575180081517735	0.0
102	3.421383647798742	0.925730606638119	-0.5377821094265699	0.0	0.9246162365987847	-0.5388135691424855	0.0	0.9583150173737056	-0.6479611550727318	0.0	0.9248903540109921	-0.7555123561071263	0.0	0.9650077105067877	-0.7788057832736371	0.0	0.9576646115087062	-0.7793824413919049	0.0	0.9134948903218801	-0.7721468515728588	0.0	0.9258716816058912	-0.5371132372132555	0.0	0.9485506863938853	-0.6478440505947095	0.0	0.9200424664198227	-0.7541840742002921	0.0	0.9601322813075113	-0.7783754018325544	0.0	0.9542890111246163	-0.7723682469147691	0.0	0.9115772333869663	-0.7666590227499969	0.0	0.9322781209410386	-0.39367740628027975	0.0	0.9753199843488334	-0.32720351339877635	0.0	0.9706625354298807	-0.3613900147714732	0.0	0.9238713644152624	-0.39834831947558835	0.0	0.9840845866659452	-0.35685012708096053	0.0	1.0263864017953501	-0.30997619802350973	0.0	0.937012240963449	-0.39810249016318655	0.0	0.9855302968734748	-0.35939491746519314	0.0	1.034554550733716	-0.315512366854289	0.0
103	3.454926624737945	0.9251859905059686	-0.5355381116384984	0.0	0.925231782105462	-0.5364140453117154	0.0	0.9550869890146007	-0.6459772560713387	0.0	0.9242023716939755	-0.7535724118096455	0.0	0.9635494341884927	-0.7769733187275225	0.0	0.956991991919529	-0.7776888517439094	0.0	0.9134045064034596	-0.7705949759121302	0.0	0.9250573744622496	-0.5346693723686741	0.0	0.9446496495993802	-0.6462086205936967	0.0	0.9190262097469795	-0.7522866654773147	0.0	0.9578420586958757	-0.77656231709705	0.0	0.9516985234940971	-0.7710420678135695	0.0	0.9108958056377583	-0.7648487746236285	0.0	0.9316170952509527	-0.39096879808377843	0.0	0.972171485250503	-0.3234899852393759	0.0	0.9690409683746672	-0.3574384636425828	0.0	0.9235802255560054	-0.39592895294574737	0.0	0.983056961132908	-0.35181074934264006	0.0	1.0250721029176515	-0.30371496972102763	0.0	0.9362105844632711	-0.3951566484450958	0.0	0.9844475938223197	-0.3527238380023738	0.0	1.03255629807011	-0.30703998698677226	0.0
104	3.4884696016771484	0.9247269456322006	-0.5361689451808015	0.0	0.9259986925211154	-0.5369561385772532	0.0	0.9515370610049623	-0.6466078338683255	0.0	0.9234031164805373	-0.7539622019340693	0.0	0.9613602385642904	-0.7775955013049429	0.0	0.9556658085960523	-0.7782471936018593	0.0	0.9132796044358349	-0.7711874718849343	0.0	0.9243407211165979	-0.5350622027089661	0.0	0.9406335111179087	-0.6470303792487011	0.0	0.918019426376175	-0.7526965130206071	0.0	0.9550410299900557	-0.7771447303875497	0.0	0.948590362098667	-0.7720424813303911	0.0	0.9101766942674814	-0.7653069756387715	0.0	0.931019497053131	-0.3910163701266071	0.0	0.9690591817697087	-0.32258485376688284	0.0	0.9673990232666798	-0.35651805553060434	0.0	0.9234868167127487	-0.3965520890338818	0.0	0.9814906981848243	-0.34989939602756154	0.0	1.0228759547930593	-0.30004258275755186	0.0	0.9347367660699838	-0.3950651698624513	0.0	0.982409521114855	-0.34949881795065196	0.0	1.0288469511775982	-0.3011757766010259	0.0
105	3.522012578616352	0.924469322815516	-0.5395384891216212	0.0	0.9267803945972124	-0.5402463333555035	0.0	0.9478759545878954	-0.6497834661241573	0.0	0.9224759586111625	-0.7566803516091039	0.0	0.9587261548120455	-0.7806151705453723	0.0	0.9538606664665492	-0.7809813825335216	0.0	0.9130953716364196	-0.7738589283061656	0.0	0.9238859856765784	-0.5381831355086797	0.0	0.936927571926048	-0.6502328896631987	0.0	0.9171533390725708	-0.7554082139220414	0.0	0.9522138462684309	-0.7799967869839672	0.0	0.9455422168729376	-0.7752252687171235	0.0	0.9094792743163784	-0.768018989338963	0.0	0.9306086710186353	-0.39374389132393156	0.0	0.9660941086512402	-0.32450093589513546	0.0	0.9657766738519429	-0.35850972427582345	0.0	0.9236443531045528	-0.3999641981158058	0.0	0.9796182743049644	-0.3508870828834625	0.0	1.019965100881936	-0.29904242366558	0.0	0.9329809572705765	-0.3978228466113186	0.0	0.9799840426519442	-0.3497769727089602	0.0	1.0242351307662911	-0.29858330862656274	0.0
106	3.555555555555555	0.924434382409742	-0.5453003543092347	0.0	0.927419629896689	-0.5458818018995677	0.0	0.9442157721696937	-0.6552852414280373	0.0	0.9214323647251229	-0.7616222765988706	0.0	0.9559924035983269	-0.7857788321366188	0.0	0.9518387486486293	-0.785723424190187	0.0	0.9129148341971345	-0.7785057942275426	0.0	0.9238052584012348	-0.5437291781213777	0.0	0.9339028093096494	-0.6556504445363639	0.0	0.9165717031924081	-0.7603389211952182	0.0	0.9498203576793618	-0.7848675342465252	0.0	0.9430966492075902	-0.780388776111308	0.0	0.9088898396165013	-0.7729132613672204	0.0	0.93036488816668	-0.3988668864774748	0.0	0.963276982914104	-0.3289569956167287	0.0	0.9641095368938357	-0.3630090532414334	0.0	0.9239860899647665	-0.40567932320330624	0.0	0.9776105837863172	-0.35438642170836776	0.0	1.0163223693242576	-0.30064860675123867	0.0	0.9313143843417102	-0.40314687247976433	0.0	0.9776819838321159	-0.3534330925046228	0.0	1.0194256736621854	-0.2996414071687852	0.0
107	3.5890985324947584	0.9245532821695706	-0.5528818149185406	0.0	0.9277575694837518	-0.5532743178666133	0.0	0.9406575837399029	-0.6626755879744477	0.0	0.9203514799097859	-0.7684615133051887	0.0	0.9534416855131523	-0.7925688372691483	0.0	0.9498218378390957	-0.7920886467348655	0.0	0.9127797683691318	-0.7848975498677883	0.0	0.9241081672217134	-0.5511648656138228	0.0	0.9317733915378063	-0.6629093788485573	0.0	0.9163213731275262	-0.7671664084678507	0.0	0.9480894975853751	-0.7913415395539362	0.0	0.9415174234877804	-0.7871450022780602	0.0	0.9084570914757498	-0.7796947102852156	0.0	0.9301883005433436	-0.40589326089184335	0.0	0.9605760845034594	-0.3354308211425222	0.0	0.9623557180419192	-0.3694617547027644	0.0	0.9243225501320252	-0.4130848446630425	0.0	0.9756452377626802	-0.35995360617537353	0.0	1.0119674928922244	-0.30466102845011334	0.0	0.9300168638932186	-0.4104777037066053	0.0	0.975972863801231	-0.3601818035647628	0.0	1.015062377415317	-0.304461782106808	0.0
108	3.622641509433962	0.9247217515442006	-0.5615356417616144	0.0	0.9276823145686087	-0.5617063522065701	0.0	0.9373922803137407	-0.6712270736935189	0.0	0.9193330718415338	-0.7765263876534991	0.0	0.9512102094354654	-0.8001095743527269	0.0	0.9478620445004547	-0.7993439113771942	0.0	0.9126044221068984	-0.7924981354843411	0.0	0.9246762679959678	-0.5597462934460397	0.0	0.9305212400972868	-0.6713059620320638	0.0	0.9163013294679005	-0.7751653623994577	0.0	0.9469121335067877	-0.7987058242290854	0.0	0.9406391334183974	-0.794746902126323	0.0	0.9081318629187013	-0.787640911331083	0.0	0.92996037407148	-0.4141865523512366	0.0	0.958017935883436	-0.3433108767085778	0.0	0.9605865155819759	-0.3772950990053277	0.0	0.9243796905558107	-0.42152064612850426	0.0	0.9739545958268181	-0.3672556733096762	0.0	1.007197789776614	-0.3108306018041086	0.0	0.9291935669981022	-0.4190996124285171	0.0	0.9751969596516014	-0.3696216777641488	0.0	1.0117396396551843	-0.31294154449588646	0.0
109	3.656184486373165	0.9248439984479243	-0.5704306097803075	0.0	0.9271790162786389	-0.5703915128459528	0.0	0.9346553373332904	-0.6799913577015693	0.0	0.9184260481441426	-0.784861974265019	0.0	0.9492876563859154	-0.8073046857629779	0.0	0.9458732859469563	-0.8065048325929179	0.0	0.9122294383285711	-0.8004517114174148	0.0	0.9253373983572579	-0.5686148393395716	0.0	0.9299333672009494	-0.6798763937889796	0.0	0.916342596277271	-0.7833157335616753	0.0	0.945956355906813	-0.8059847751614498	0.0	0.9400143372547648	-0.8021731864555702	0.0	0.9078042059648234	-0.7956925582299023	0.0	0.9295873982445165	-0.42299245698369237	0.0	0.9558356740182448	-0.35195636983474	0.0	0.9590045126484528	-0.3859166556995368	0.0	0.9239006982593816	-0.43026953871382395	0.0	0.9727600404082388	-0.3761342490970216	0.0	1.0025950317134027	-0.3189853636540655	0.0	0.9287529428662064	-0.428227488554018	0.0	0.9754048821446062	-0.3812388177646243	0.0	1.0098464494327961	-0.324691280412903	0.0
